<svg id="Capa_1" enable-background="new 0 0 512 512" height="512" viewBox="0 0 512 512" width="512" xmlns="http://www.w3.org/2000/svg"><g><path d="m320 494.5h-128c-9.286 0-16.312-8.334-14.8-17.47l16-96c1.21-7.23 7.47-12.53 14.8-12.53h96c7.33 0 13.59 5.3 14.8 12.53l16 96c1.51 9.122-5.501 17.47-14.8 17.47z" fill="#8bb9ff"/><path d="m320 494.5h-64v-126h48c7.33 0 13.59 5.3 14.8 12.53l16 96c1.51 9.122-5.501 17.47-14.8 17.47z" fill="#6e75e2"/><path d="m367 479.5c0 8.28-6.72 15-15 15h-192c-8.28 0-15-6.72-15-15s6.72-15 15-15h192c8.28 0 15 6.72 15 15z" fill="#6e75e2"/><path d="m367 479.5c0 8.28-6.72 15-15 15h-96v-30h96c8.28 0 15 6.72 15 15z" fill="#3340d8"/><path d="m497 62.5v291c0 16.57-13.43 30-30 30h-422c-16.57 0-30-13.43-30-30v-291c0-16.57 13.43-30 30-30h422c16.57 0 30 13.43 30 30z" fill="#f6f9f9"/><path d="m497 62.5v291c0 16.57-13.43 30-30 30h-211v-351h211c16.57 0 30 13.43 30 30z" fill="#e2dff4"/><path d="m467 17.5h-422c-24.81 0-45 20.19-45 45v291c0 24.81 20.19 45 45 45h422c24.81 0 45-20.19 45-45v-291c0-24.81-20.19-45-45-45zm15 336c0 8.27-6.73 15-15 15h-422c-8.27 0-15-6.73-15-15v-291c0-8.27 6.73-15 15-15h422c8.27 0 15 6.73 15 15z" fill="#6e75e2"/><path d="m512 62.5v291c0 24.81-20.19 45-45 45h-211v-30h211c8.27 0 15-6.73 15-15v-291c0-8.27-6.73-15-15-15h-211v-30h211c24.81 0 45 20.19 45 45z" fill="#3340d8"/><path d="m271 32.5v32c0 8.28-6.72 15-15 15s-15-6.72-15-15v-32c0-8.28 6.72-15 15-15s15 6.72 15 15z" fill="#6e75e2"/><path d="m271 32.5v32c0 8.28-6.72 15-15 15v-62c8.28 0 15 6.72 15 15z" fill="#3340d8"/><path d="m144 288.5c-8.284 0-15-6.716-15-15v-97c0-8.284 6.716-15 15-15s15 6.716 15 15v97c0 8.284-6.716 15-15 15z" fill="#ffb454"/><path d="m208 288.5c-8.284 0-15-6.716-15-15v-49c0-8.284 6.716-15 15-15s15 6.716 15 15v49c0 8.284-6.716 15-15 15z" fill="#e27a4e"/><circle cx="360" cy="208.5" fill="#ffb454" r="87"/><path d="m447 208.5c0 47.97-39.03 87-87 87-23.24 0-45.08-9.05-61.52-25.48l61.52-61.52v-15h72c8.28 0 15 6.72 15 15z" fill="#00cb75"/><path d="m447 208.5h-87v-87c47.97 0 87 39.03 87 87z" fill="#6e75e2"/><path d="m80 288.5c-8.284 0-15-6.716-15-15v-145c0-8.284 6.716-15 15-15s15 6.716 15 15v145c0 8.284-6.716 15-15 15z" fill="#ace233"/><path d="m65 273.5v15c0 8.284 6.716 15 15 15h128c8.284 0 15-6.716 15-15v-15c-19.952 0-138.128 0-158 0z" fill="#e2dff4"/></g></svg>