<svg id="Capa_1" enable-background="new 0 0 512 512" height="512" viewBox="0 0 512 512" width="512" xmlns="http://www.w3.org/2000/svg"><g><path d="m128 68.143h188v358.214h-188z" fill="#09a1e5"/><path d="m256 0-128 68.143 128 68.143h128v-68.143z" fill="#3ec3ff"/><path d="m324 136.286 60 375.714 128-68.143v-307.571z" fill="#962b7c"/><path d="m256 136.286v136.286l-50 85.642 50 85.643 128 68.143v-375.714z" fill="#cb2e81"/><path d="m512 136.286-128-68.143-128 68.143 128 68.142z" fill="#ff3187"/><path d="m68 272.572 60 239.428 128-68.143v-171.285z" fill="#ff9259"/><path d="m0 272.572v171.285l128 68.143v-239.428z" fill="#ffb24a"/><path d="m128 204.428-128 68.144 128 68.142 128-68.142z" fill="#ffd23b"/></g></svg>